<?xml version="1.0" standalone="no"?>
<!DOCTYPE svg PUBLIC "-//W3C//DTD SVG 20010904//EN"
 "http://www.w3.org/TR/2001/REC-SVG-20010904/DTD/svg10.dtd">
<svg version="1.0" xmlns="http://www.w3.org/2000/svg"
 width="241.000000pt" height="300.000000pt" viewBox="0 0 241.000000 300.000000"
 preserveAspectRatio="xMidYMid meet">

<g transform="translate(0.000000,300.000000) scale(0.100000,-0.100000)"
fill="#000000" stroke="none">
<path d="M998 2783 l-3 -217 -115 -70 c-226 -138 -288 -249 -178 -316 49 -29
63 -25 36 10 -46 63 -3 104 264 249 192 105 267 150 298 181 30 30 26 73 -11
104 -23 20 -26 26 -13 26 34 0 105 -42 119 -71 20 -37 19 -52 -5 -99 -28 -54
-96 -110 -251 -204 l-134 -81 -3 -51 -3 -50 -112 -70 c-160 -98 -237 -174
-237 -233 0 -36 21 -68 60 -90 48 -27 71 -28 43 -1 -72 66 -26 115 246 262
166 89 262 147 299 181 33 30 29 72 -10 108 l-33 30 30 -7 c98 -23 142 -85
111 -158 -23 -56 -92 -114 -248 -207 l-143 -87 -3 -196 -2 -196 50 0 c188 0
413 108 539 260 109 131 161 265 169 436 12 273 -107 506 -335 655 -104 67
-272 118 -395 119 l-28 0 -2 -217z"/>
<path d="M81 416 c-20 -23 -3 -54 34 -66 24 -8 35 -18 35 -31 0 -30 -30 -36
-51 -11 -22 28 -29 28 -29 -1 0 -21 5 -24 39 -25 45 -2 66 17 57 51 -4 16 -17
27 -38 33 -36 10 -49 40 -23 50 9 4 24 -1 35 -11 19 -17 20 -17 20 1 0 15 -8
20 -34 22 -19 2 -38 -4 -45 -12z"/>
<path d="M518 423 c8 -3 12 -27 12 -68 0 -41 -4 -65 -12 -68 -7 -3 -2 -6 12
-6 23 -1 25 3 25 41 0 36 3 43 20 43 16 0 21 -8 23 -42 2 -33 7 -43 20 -42 10
0 12 3 5 6 -8 3 -13 23 -13 50 0 45 0 45 -30 41 -27 -4 -30 -2 -30 24 0 23 -4
28 -22 27 -13 0 -17 -3 -10 -6z"/>
<path d="M738 422 c9 -7 9 -19 -4 -58 -9 -27 -24 -57 -32 -66 -14 -17 -13 -18
11 -18 19 0 25 4 21 15 -8 20 13 45 37 45 24 0 42 -33 27 -48 -9 -9 -5 -12 16
-12 21 0 26 3 19 13 -17 20 -45 116 -38 127 4 6 -8 10 -32 10 -23 0 -33 -4
-25 -8z m46 -34 c9 -35 8 -38 -14 -38 -20 0 -25 15 -14 44 9 23 21 20 28 -6z"/>
<path d="M874 416 c-3 -8 -6 -41 -7 -75 -2 -59 -1 -61 23 -61 16 0 21 3 13 8
-8 5 -12 31 -12 69 1 51 4 61 17 56 10 -4 13 -2 8 5 -10 16 -35 15 -42 -2z"/>
<path d="M1508 418 c16 -16 16 -125 0 -131 -7 -3 3 -6 22 -6 22 0 30 2 22 8
-9 5 -12 25 -10 61 l3 53 34 -62 c19 -33 38 -61 43 -61 4 0 8 29 8 65 0 50 4
66 18 74 14 9 11 10 -17 11 -28 0 -31 -2 -22 -14 7 -8 11 -34 9 -58 l-3 -43
-33 58 c-28 46 -39 57 -60 57 -20 0 -23 -3 -14 -12z"/>
<path d="M1870 420 c0 -5 5 -10 10 -10 6 0 10 5 10 10 0 6 -4 10 -10 10 -5 0
-10 -4 -10 -10z"/>
<path d="M2308 418 c7 -7 12 -35 12 -63 0 -28 -5 -56 -12 -63 -9 -9 -5 -12 18
-11 16 0 23 3 17 6 -9 3 -13 28 -13 74 0 58 -3 69 -17 69 -13 0 -14 -3 -5 -12z"/>
<path d="M1804 397 c-6 -9 -7 -38 -4 -64 4 -38 9 -48 25 -50 11 -2 14 0 8 3
-7 3 -13 23 -13 45 0 24 5 39 13 39 8 0 9 3 1 8 -6 4 -13 14 -16 22 -4 12 -6
12 -14 -3z"/>
<path d="M458 389 c-7 -21 7 -102 19 -106 9 -3 9 3 0 27 -9 23 -9 35 0 49 10
15 9 22 -1 31 -11 8 -15 8 -18 -1z"/>
<path d="M198 354 c-8 -18 -9 -31 -2 -42 40 -63 130 -19 94 47 -17 32 -77 29
-92 -5z m70 4 c17 -17 15 -43 -4 -59 -31 -26 -70 25 -44 56 15 18 32 19 48 3z"/>
<path d="M327 353 c11 -73 10 -71 58 -71 32 1 43 4 35 12 -5 5 -10 27 -10 48
0 30 -4 38 -17 37 -11 0 -13 -3 -5 -6 15 -6 16 -55 0 -71 -25 -25 -38 -13 -38
33 0 31 -4 45 -14 45 -9 0 -12 -9 -9 -27z"/>
<path d="M928 373 c6 -2 12 -22 12 -43 0 -21 -6 -41 -12 -43 -7 -3 3 -5 22 -5
19 0 29 2 23 5 -7 2 -13 20 -13 39 0 27 5 37 23 44 13 5 16 9 7 9 -9 1 -21 -4
-28 -11 -9 -9 -12 -9 -12 0 0 7 -8 12 -17 11 -11 0 -13 -3 -5 -6z"/>
<path d="M1028 373 c15 -6 16 -65 0 -81 -9 -9 -6 -12 17 -12 23 0 26 3 17 12
-7 7 -12 29 -12 50 0 30 -4 38 -17 37 -11 0 -13 -3 -5 -6z"/>
<path d="M1102 368 c-17 -17 -15 -63 2 -77 19 -16 68 -10 74 9 4 12 2 13 -9 3
-21 -21 -49 -15 -61 12 -19 41 28 75 60 43 9 -9 12 -8 12 5 0 20 -59 24 -78 5z"/>
<path d="M1215 371 c-4 -7 5 -9 25 -5 23 5 30 3 30 -9 0 -10 -11 -17 -27 -19
-22 -2 -28 -8 -28 -28 0 -23 4 -25 49 -26 27 -1 44 1 38 5 -6 3 -12 24 -14 46
-3 37 -6 40 -35 43 -17 2 -34 -2 -38 -7z m53 -58 c5 -17 -26 -29 -40 -15 -6 6
-7 15 -3 22 9 14 37 9 43 -7z"/>
<path d="M1328 373 c6 -2 12 -22 12 -43 0 -21 -6 -41 -12 -43 -7 -3 0 -6 17
-6 22 -1 26 2 17 11 -25 25 -8 78 25 78 9 0 13 -15 13 -45 0 -40 2 -45 23 -45
13 0 17 3 10 8 -6 4 -13 25 -15 47 l-3 40 -50 2 c-27 0 -44 -1 -37 -4z"/>
<path d="M1680 372 c0 -4 12 -8 27 -7 14 0 28 -6 30 -12 3 -8 -5 -13 -20 -13
-13 0 -30 -7 -37 -15 -20 -24 4 -44 52 -43 28 0 37 3 29 11 -6 6 -11 28 -11
49 0 37 -1 38 -35 38 -19 0 -35 -4 -35 -8z m55 -62 c0 -8 -10 -16 -22 -18 -18
-3 -23 2 -23 18 0 16 5 21 23 18 12 -2 22 -10 22 -18z"/>
<path d="M1865 330 c0 -38 4 -50 15 -50 12 0 14 11 12 50 -5 67 -27 67 -27 0z"/>
<path d="M1928 355 c-23 -52 46 -100 86 -59 35 34 11 84 -40 84 -27 0 -37 -5
-46 -25z m66 9 c21 -8 21 -48 0 -65 -31 -26 -70 25 -44 56 14 17 21 18 44 9z"/>
<path d="M2058 373 c15 -6 16 -65 0 -81 -9 -9 -6 -12 17 -12 23 0 26 3 17 12
-17 17 -15 65 4 72 29 11 34 6 34 -39 0 -40 2 -45 23 -45 13 0 17 3 10 8 -6 4
-13 25 -15 47 l-3 40 -50 1 c-27 1 -44 -1 -37 -3z"/>
<path d="M2190 372 c0 -4 12 -8 27 -7 14 0 28 -6 30 -12 3 -8 -5 -13 -20 -13
-13 0 -30 -7 -37 -15 -20 -24 4 -44 52 -43 28 0 37 3 29 11 -6 6 -11 28 -11
49 0 37 -1 38 -35 38 -19 0 -35 -4 -35 -8z m55 -62 c0 -8 -10 -16 -22 -18 -18
-3 -23 2 -23 18 0 16 5 21 23 18 12 -2 22 -10 22 -18z"/>
<path d="M38 148 c16 -16 16 -125 0 -131 -7 -3 6 -6 29 -6 23 -1 48 2 57 5 18
7 23 64 5 64 -6 0 -8 -8 -4 -19 4 -14 0 -23 -15 -31 -26 -14 -40 -5 -40 26 0
19 5 24 25 24 20 0 45 24 45 44 0 17 -37 36 -73 36 -32 0 -38 -3 -29 -12z m80
-29 c3 -17 -23 -33 -39 -23 -5 3 -9 14 -9 25 0 15 6 20 22 17 13 -2 24 -10 26
-19z"/>
<path d="M180 150 c0 -5 5 -10 10 -10 6 0 10 5 10 10 0 6 -4 10 -10 10 -5 0
-10 -4 -10 -10z"/>
<path d="M574 146 c-3 -8 -6 -41 -7 -75 -2 -59 -1 -61 23 -61 16 0 21 3 13 8
-8 5 -12 31 -12 71 1 50 4 61 16 57 8 -3 11 -1 8 4 -9 15 -35 12 -41 -4z"/>
<path d="M1578 148 c7 -7 12 -35 12 -63 0 -28 -5 -56 -12 -63 -9 -9 -7 -12 13
-12 23 0 24 2 24 75 0 73 -1 75 -24 75 -20 0 -22 -3 -13 -12z"/>
<path d="M1181 128 c-1 -9 -7 -19 -13 -21 -10 -4 -10 -6 0 -6 8 -1 12 -17 12
-46 0 -36 4 -45 17 -45 13 0 14 3 5 12 -16 16 -16 78 1 78 8 0 9 3 1 8 -6 4
-14 14 -17 22 -4 12 -6 12 -6 -2z"/>
<path d="M1891 128 c-1 -9 -7 -19 -13 -21 -10 -4 -10 -6 0 -6 8 -1 12 -17 12
-46 0 -36 4 -45 17 -45 13 0 14 3 5 12 -16 16 -16 78 1 78 8 0 9 3 1 8 -6 4
-14 14 -17 22 -4 12 -6 12 -6 -2z"/>
<path d="M2024 127 c-6 -9 -7 -38 -4 -64 4 -38 9 -48 25 -50 11 -2 14 0 8 3
-7 3 -13 23 -13 45 0 24 5 39 13 39 8 0 9 3 1 8 -6 4 -13 14 -16 22 -4 12 -6
12 -14 -3z"/>
<path d="M2212 120 c-7 -12 -8 -20 -2 -20 5 0 10 -20 10 -45 0 -36 4 -45 17
-45 13 0 14 3 5 12 -16 16 -16 78 1 78 8 0 9 3 1 8 -6 4 -13 13 -15 20 -3 8
-8 5 -17 -8z"/>
<path d="M175 60 c0 -47 2 -50 25 -49 14 0 19 3 13 6 -8 3 -13 23 -13 49 0 29
-4 44 -12 44 -9 0 -13 -17 -13 -50z"/>
<path d="M247 89 c-29 -40 7 -88 56 -75 30 7 46 49 30 75 -16 26 -68 26 -86 0z
m68 -23 c0 -36 -26 -56 -49 -37 -31 26 -11 75 29 69 15 -2 20 -11 20 -32z"/>
<path d="M368 103 c15 -6 16 -65 0 -81 -9 -9 -6 -12 17 -12 23 0 26 3 17 12
-7 7 -12 29 -12 50 0 30 -4 38 -17 37 -11 0 -13 -3 -5 -6z"/>
<path d="M439 97 c15 -15 14 -60 -1 -75 -9 -9 -5 -12 18 -11 16 0 23 3 17 6
-19 7 -16 70 3 77 29 11 34 6 34 -39 0 -36 4 -45 17 -45 13 0 14 3 5 12 -7 7
-12 29 -12 50 l0 37 -46 -1 c-32 0 -42 -4 -35 -11z"/>
<path d="M642 98 c-15 -15 -15 -61 0 -76 15 -15 61 -15 76 0 7 7 12 24 12 38
0 33 -17 50 -50 50 -14 0 -31 -5 -38 -12z m68 -13 c14 -17 5 -51 -15 -59 -35
-13 -63 21 -45 55 13 23 43 25 60 4z"/>
<path d="M758 103 c7 -3 12 -22 12 -43 0 -21 -6 -41 -12 -43 -7 -3 3 -5 22 -5
19 0 29 2 23 5 -21 8 -15 60 8 76 19 14 17 15 -23 15 -24 0 -37 -2 -30 -5z"/>
<path d="M858 102 c16 -5 16 -64 0 -80 -9 -9 -6 -12 17 -12 23 0 26 3 17 12
-17 17 -15 65 4 72 29 11 34 6 34 -39 0 -29 4 -45 13 -45 8 0 12 15 12 42 0
36 3 43 20 43 16 0 21 -8 23 -42 2 -33 7 -43 20 -42 10 0 12 3 5 6 -8 3 -13
23 -13 48 l0 43 -82 -1 c-45 0 -76 -3 -70 -5z"/>
<path d="M1055 101 c-4 -7 5 -9 25 -5 23 5 30 3 30 -9 0 -10 -11 -17 -27 -19
-22 -2 -28 -8 -28 -28 0 -23 4 -25 49 -26 27 -1 44 1 38 5 -6 3 -12 24 -14 46
-3 37 -6 40 -35 43 -17 2 -34 -2 -38 -7z m55 -56 c0 -9 -7 -18 -16 -22 -18 -7
-39 11 -30 26 11 17 46 13 46 -4z"/>
<path d="M1238 103 c15 -6 16 -65 0 -81 -9 -9 -6 -12 17 -12 23 0 26 3 17 12
-7 7 -12 29 -12 50 0 30 -4 38 -17 37 -11 0 -13 -3 -5 -6z"/>
<path d="M1312 98 c-17 -17 -15 -63 2 -77 19 -16 68 -10 74 9 4 12 2 13 -9 3
-19 -19 -47 -16 -59 7 -22 40 26 80 58 48 9 -9 12 -8 12 5 0 20 -59 24 -78 5z"/>
<path d="M1420 86 c0 -19 7 -26 30 -31 17 -4 30 -11 30 -16 0 -16 -29 -22 -45
-9 -12 10 -15 9 -15 -4 0 -21 53 -22 70 -1 15 19 -1 42 -32 47 -12 2 -23 9
-26 16 -5 16 30 16 46 0 9 -9 12 -8 12 5 0 13 -9 17 -35 17 -30 0 -35 -3 -35
-24z"/>
<path d="M1648 103 c6 -2 12 -22 12 -43 0 -21 -6 -41 -12 -43 -7 -3 -2 -6 12
-6 24 -1 25 2 22 39 -3 31 0 41 13 46 22 9 35 -11 35 -53 0 -25 4 -33 18 -33
11 0 13 3 5 8 -6 4 -13 25 -15 47 l-3 40 -50 2 c-27 0 -44 -1 -37 -4z"/>
<path d="M1777 97 c-8 -20 5 -35 36 -42 15 -4 27 -11 27 -16 0 -15 -30 -23
-43 -10 -15 15 -27 14 -27 -4 0 -19 63 -21 79 -2 13 17 -5 44 -33 49 -11 1
-21 9 -24 16 -5 16 30 16 46 0 9 -9 12 -8 12 5 0 21 -65 24 -73 4z"/>
<path d="M1948 103 c6 -2 12 -22 12 -43 0 -21 -6 -41 -12 -43 -7 -3 0 -6 17
-6 22 -1 26 2 17 11 -7 7 -12 29 -12 50 0 30 -4 38 -17 37 -11 0 -13 -3 -5 -6z"/>
<path d="M2090 63 l5 -48 50 -2 c28 0 44 1 38 4 -8 3 -13 23 -13 49 0 29 -4
44 -13 44 -9 0 -11 -12 -9 -40 3 -31 0 -41 -13 -46 -22 -9 -35 11 -35 54 0 17
-4 32 -8 32 -4 0 -5 -21 -2 -47z"/>
<path d="M2280 91 c-15 -29 -12 -46 9 -65 22 -20 72 -18 79 2 3 11 1 11 -17 0
-15 -9 -26 -10 -38 -2 -34 21 -26 34 21 34 49 0 56 9 30 34 -22 23 -71 20 -84
-3z m78 -8 c2 -9 -8 -13 -32 -13 -34 0 -44 8 -29 24 11 11 56 2 61 -11z"/>
</g>
</svg>
